#!OML:ASF E:\Steps\Project 1\Capture day 1\Session 2\Subject.ASF
:FULLY-SPECIFIED
:DEGREES
224
root 9.02268 16.2764 31.3492 -152.298 -2.30974 178.942
lowerback -28.1396 -1.92525 -5.081
upperback -1.48783 -1.43758 -0.405652
thorax 14.147 -1.20772 1.83697
lowerneck -0.573202 -1.9517 -2.13135
upperneck -8.3492 -2.60851 7.02819
head -2.44335 -1.61147 2.71191
rclavicle -6.55989e-015 -3.97569e-015
rhumerus -27.6778 -13.3051 -83.3024
rradius 24.182
rwrist 4.05225
rhand -7.42472 -49.804
rfingers 7.12502
rthumb 18.4623 -78.9479
lclavicle -6.55989e-015 -3.97569e-015
lhumerus -25.0575 -11.6092 85.9005
lradius 21.5072
lwrist -6.46964
lhand -22.9142 -13.8407
lfingers 7.12502
lthumb 3.52591 16.1099
rfemur -27.2716 8.51334 18.9349
rtibia 12.3604
rfoot -21.971 -11.5164
rtoes -36.4457
lfemur -26.9948 -8.55593 -18.7364
ltibia 10.4557
lfoot -9.94386 3.15067
ltoes -39.9108
225
root 9.0195 16.278 31.3628 -152.227 -2.45552 178.894
lowerback -27.8871 -1.9282 -5.03358
upperback -1.42684 -1.44847 -0.435798
thorax 14.0829 -1.20103 1.77593
lowerneck -0.574456 -1.93077 -2.1045
upperneck -8.22317 -2.57753 6.99342
head -2.40311 -1.58961 2.69133
rclavicle 8.64713e-015 1.35174e-014
rhumerus -28.0273 -14.0169 -82.7489
rradius 23.8541
rwrist 4.80586
rhand -7.42809 -49.8043
rfingers 7.12502
rthumb 18.4591 -78.9484
lclavicle 8.64713e-015 1.35174e-014
lhumerus -25.2056 -11.8695 85.644
lradius 21.5205
lwrist -6.21599
lhand -23.1362 -13.8495
lfingers 7.12502
lthumb 3.31154 16.1045
rfemur -27.5331 8.37574 18.8942
rtibia 12.7073
rfoot -22.168 -11.6439
rtoes -36.3745
lfemur -27.2548 -8.71629 -18.7394
ltibia 10.7191
lfoot -10.1042 3.22939
ltoes -40.6975
226
root 9.02029 16.2811 31.3753 -152.246 -2.73378 178.853
lowerback -27.5698 -2.02647 -5.0238
upperback -1.30481 -1.57213 -0.392202
thorax 14.0678 -1.24704 1.77923
lowerneck -0.484631 -1.89686 -2.15164
upperneck -8.28025 -2.53006 6.93882
head -2.44094 -1.56393 2.68436
rclavicle -9.14409e-015 5.96354e-015
rhumerus -28.3555 -14.1881 -82.297
rradius 23.6438
rwrist 5.17662
rhand -7.42029 -49.885
rfingers 7.12502
rthumb 18.4666 -79.0284
lclavicle -9.14409e-015 5.96354e-015
lhumerus -25.1516 -11.4524 85.1507
lradius 21.0646
lwrist -6.57566
lhand -23.2784 -14.9812
lfingers 7.12502
lthumb 3.17421 14.9749
rfemur -27.55 8.40309 18.8903
rtibia 12.8122
rfoot -22.22 -12.066
rtoes -36.5231
lfemur -27.4793 -8.95004 -18.676
ltibia 11.0778
lfoot -10.3835 3.27367
ltoes -41.4412
227
root 9.02115 16.2853 31.388 -152.246 -2.98087 178.657
lowerback -27.205 -2.12212 -5.16176
upperback -1.13095 -1.63135 -0.434037
thorax 14.0845 -1.26993 1.7945
lowerneck -0.60305 -1.9486 -2.0307
upperneck -8.36062 -2.60578 6.92983
head -2.44325 -1.60956 2.65977
rclavicle 8.54774e-015 1.63003e-014
rhumerus -28.5458 -14.5719 -81.8755
rradius 23.3448
rwrist 5.60617
rhand -7.34862 -49.7837
rfingers 7.12502
rthumb 18.5355 -78.9206
lclavicle 8.54774e-015 1.63003e-014
lhumerus -25.0402 -11.2854 84.6653
lradius 20.8711
lwrist -6.66009
lhand -21.8022 -15.0583
lfingers 7.12502
lthumb 4.59978 14.8718
rfemur -27.5386 8.36554 18.6999
rtibia 12.8274
rfoot -22.2136 -12.4197
rtoes -36.542
lfemur -27.7088 -9.12753 -18.821
ltibia 11.4243
lfoot -10.5548 3.20291
ltoes -42.5871
228
root 9.02081 16.2882 31.4038 -152.169 -3.16738 178.534
lowerback -26.8002 -2.20102 -5.22241
upperback -1.07694 -1.72104 -0.439306
thorax 13.9366 -1.30515 1.79878
lowerneck -0.579127 -1.89179 -2.04376
upperneck -8.27627 -2.52789 6.84529
head -2.42384 -1.5626 2.63077
rclavicle -8.94531e-015 -3.97569e-016
rhumerus -28.8968 -15.0654 -81.3157
rradius 22.9391
rwrist 6.15327
rhand -7.42264 -49.9742
rfingers 7.12502
rthumb 18.4643 -79.1179
lclavicle -8.94531e-015 -3.97569e-016
lhumerus -25.3633 -11.206 84.2944
lradius 20.9236
lwrist -6.87198
lhand -22.2419 -14.3568
lfingers 7.12502
lthumb 4.17517 15.5821
rfemur -27.7131 8.0928 18.5939
rtibia 12.9478
rfoot -22.3731 -12.267
rtoes -35.9733
lfemur -28.0042 -9.12853 -18.9258
ltibia 11.6698
lfoot -10.5498 3.0291
ltoes -43.3755
229
root 9.02348 16.2904 31.4236 -152.033 -3.34476 178.613
lowerback -26.3655 -2.23688 -5.10366
upperback -1.1 -1.82989 -0.374016
thorax 13.6785 -1.34037 1.77715
lowerneck -0.496058 -1.78532 -2.12173
upperneck -8.11439 -2.37981 6.74674
head -2.39249 -1.47429 2.60725
rclavicle 9.93923e-017 2.46493e-014
rhumerus -29.4655 -15.3891 -80.7265
rradius 22.6342
rwrist 6.62561
rhand -7.77233 -50.3345
rfingers 7.12502
rthumb 18.1279 -79.5098
lclavicle 9.93923e-017 2.46493e-014
lhumerus -25.8527 -11.1224 83.9107
lradius 21.0101
lwrist -7.02541
lhand -22.5526 -14.1981
lfingers 7.12502
lthumb 3.87514 15.7465
rfemur -28.0296 8.22173 18.6208
rtibia 13.1369
rfoot -22.5903 -12.3116
rtoes -34.8875
lfemur -28.4844 -9.04212 -18.7633
ltibia 12.0829
lfoot -10.752 2.87156
ltoes -43.1844
230
root 9.02504 16.2926 31.4421 -151.862 -3.43373 178.71
lowerback -26.0625 -2.19904 -4.94664
upperback -1.0555 -1.83302 -0.333585
thorax 13.5623 -1.3256 1.74074
lowerneck -0.380685 -1.82419 -2.10391
upperneck -8.30995 -2.43022 6.78141
head -2.47613 -1.50958 2.62404
rclavicle -6.85807e-015 -9.54166e-015
rhumerus -29.9655 -15.7389 -80.1171
rradius 22.2877
rwrist 7.121
rhand -7.85524 -50.5029
rfingers 7.12502
rthumb 18.0481 -79.6855
lclavicle -6.85807e-015 -9.54166e-015
lhumerus -26.1393 -11.0176 83.4713
lradius 21.0307
lwrist -7.22327
lhand -23.4068 -15.2539
lfingers 7.12502
lthumb 3.0502 14.704
rfemur -28.4014 8.6588 18.5784
rtibia 13.3537
rfoot -22.7275 -12.6887
rtoes -34.1699
lfemur -29.0184 -9.04614 -18.5669
ltibia 12.5864
lfoot -11.0137 2.91006
ltoes -42.4861
231
root 9.02224 16.2936 31.459 -151.643 -3.49053 178.772
lowerback -25.9597 -2.13983 -4.807
upperback -0.880243 -1.77382 -0.298403
thorax 13.7065 -1.28429 1.72434
lowerneck -0.409822 -1.91614 -2.06026
upperneck -8.74572 -2.56261 6.83694
head -2.61009 -1.5988 2.64813
rclavicle 1.78906e-015 -6.75868e-015
rhumerus -30.2676 -15.9239 -79.5413
rradius 21.9823
rwrist 7.27625
rhand -7.63776 -50.2032
rfingers 7.12502
rthumb 18.2574 -79.3663
lclavicle 1.78906e-015 -6.75868e-015
lhumerus -26.1395 -11.1123 83.1455
lradius 20.928
lwrist -7.02066
lhand -23.648 -14.8555
lfingers 7.12502
lthumb 2.8173 15.1056
rfemur -28.8218 9.03267 18.497
rtibia 13.548
rfoot -22.7894 -13.064
rtoes -33.9966
lfemur -29.532 -9.11412 -18.4271
ltibia 12.9761
lfoot -11.0618 2.93334
ltoes -41.6577
232
root 9.01547 16.293 31.4657 -151.531 -3.6233 178.818
lowerback -25.9512 -2.13999 -4.63266
upperback -0.597082 -1.78671 -0.243792
thorax 14.0364 -1.27329 1.67966
lowerneck -0.551199 -1.90178 -2.09864
upperneck -9.0126 -2.55639 6.81003
head -2.67415 -1.60557 2.65026
rclavicle -1.0138e-014 -1.23246e-014
rhumerus -30.4549 -16.0242 -79.0238
rradius 21.552
rwrist 7.71031
rhand -7.90997 -48.4024
rfingers 7.12502
rthumb 17.9955 -77.5899
lclavicle -1.0138e-014 -1.23246e-014
lhumerus -26.1648 -11.3146 82.8963
lradius 20.7848
lwrist -6.43797
lhand -22.8007 -13.1698
lfingers 7.12502
lthumb 3.63557 16.779
rfemur -28.9796 9.21635 18.4464
rtibia 13.5621
rfoot -22.8466 -13.3116
rtoes -33.5766
lfemur -29.8264 -9.40861 -18.2607
ltibia 13.1906
lfoot -11.0806 3.12372
ltoes -41.8697
233
root 9.00974 16.3023 31.4793 -151.546 -3.88275 178.592
lowerback -25.5148 -2.24421 -4.71782
upperback -0.421083 -1.88685 -0.245015
thorax 14.014 -1.31386 1.69937
lowerneck -0.581737 -1.84491 -2.17056
upperneck -8.99335 -2.48047 6.77543
head -2.66562 -1.56222 2.64925
rclavicle -1.04362e-014 -2.78299e-015
rhumerus -30.9293 -16.0713 -78.513
rradius 21.0735
rwrist 8.8364
rhand -9.00569 -44.799
rfingers 7.12502
rthumb 16.941 -74.0802
lclavicle -1.04362e-014 -2.78299e-015
lhumerus -26.4697 -11.0584 82.5467
lradius 20.6455
lwrist -6.71902
lhand -23.1716 -13.9451
lfingers 7.12502
lthumb 3.27741 16.0094
rfemur -28.9263 8.96043 18.22
rtibia 13.5436
rfoot -22.978 -13.3146
rtoes -32.8438
lfemur -30.0701 -9.81159 -18.4136
ltibia 13.5503
lfoot -11.2327 3.29149
ltoes -42.7677
234
root 9.00603 16.3135 31.5217 -151.143 -4.20634 178.271
lowerback -24.8903 -2.34556 -4.94894
upperback -0.513825 -1.98938 -0.247766
thorax 13.5723 -1.36772 1.80986
lowerneck -0.67156 -1.84605 -2.13459
upperneck -8.88517 -2.48205 6.73021
head -2.61312 -1.55714 2.6223
rclavicle -1.81888e-014 -9.14409e-015
rhumerus -31.687 -16.127 -77.9026
rradius 20.9904
rwrist 9.337
rhand -8.95397 -48.146
rfingers 7.12502
rthumb 16.9907 -77.4229
lclavicle -1.81888e-014 -9.14409e-015
lhumerus -26.7908 -10.6768 82.1489
lradius 20.4349
lwrist -7.44722
lhand -23.5606 -14.5709
lfingers 7.12502
lthumb 2.90171 15.3891
rfemur -29.5604 8.6804 17.85
rtibia 13.8009
rfoot -22.9829 -13.5081
rtoes -32.9263
lfemur -31.0774 -10.0629 -18.653
ltibia 14.3292
lfoot -11.4817 3.09996
ltoes -42.72
235
root 8.99329 16.3122 31.5549 -150.57 -4.38526 178.213
lowerback -24.6235 -2.28677 -4.68374
upperback -0.597 -2.00124 -0.30503
thorax 13.3148 -1.35009 1.59743
lowerneck -0.795154 -1.87182 -1.98873
upperneck -8.92328 -2.52321 6.698
head -2.60245 -1.58409 2.58375
rclavicle -1.56046e-014 3.97569e-015
rhumerus -32.3909 -16.7288 -77.1468
rradius 20.667
rwrist 10.0736
rhand -8.84895 -48.0402
rfingers 7.12502
rthumb 17.0918 -77.3084
lclavicle -1.56046e-014 3.97569e-015
lhumerus -27.1686 -10.868 81.7098
lradius 20.3967
lwrist -7.47443
lhand -24.0315 -15.3621
lfingers 7.12502
lthumb 2.44692 14.6036
rfemur -30.4086 8.35864 17.7432
rtibia 14.0684
rfoot -22.9886 -13.4206
rtoes -33.0968
lfemur -32.1426 -10.3106 -18.6324
ltibia 14.955
lfoot -11.7194 3.08285
ltoes -42.7195
236
root 8.99202 16.3077 31.5798 -150.027 -4.61419 178.263
lowerback -24.4685 -2.31174 -4.49245
upperback -0.628026 -2.10565 -0.216195
thorax 13.1962 -1.38565 1.55739
lowerneck -0.838222 -1.89615 -2.02441
upperneck -9.11904 -2.56267 6.70077
head -2.65817 -1.61156 2.59626
rclavicle -1.47101e-014 3.97569e-016
rhumerus -33.0255 -17.0153 -76.3892
rradius 20.1532
rwrist 11.078
rhand -9.34329 -48.2545
rfingers 7.12502
rthumb 16.616 -77.5632
lclavicle -1.47101e-014 3.97569e-016
lhumerus -27.7202 -10.9298 81.3802
lradius 20.4802
lwrist -7.5406
lhand -21.8153 -13.3155
lfingers 7.12502
lthumb 4.58708 16.6148
rfemur -31.194 8.13003 17.7807
rtibia 14.28
rfoot -23.0288 -13.3815
rtoes -32.8513
lfemur -33.1679 -10.4354 -18.393
ltibia 15.5353
lfoot -11.8919 2.9882
ltoes -42.6198
237
root 9.01098 16.2939 31.5641 -150.103 -4.07361 178.978
lowerback -24.4347 -2.00887 -4.19187
upperback -0.347226 -1.77209 -0.0307747
thorax 13.4819 -1.2137 1.7144
lowerneck -0.881634 -1.9177 -2.01171
upperneck -9.32194 -2.6009 6.65164
head -2.71713 -1.63854 2.58267
rclavicle -1.71949e-014 -2.66371e-014
rhumerus -33.584 -17.634 -75.4688
rradius 19.6444
rwrist 11.7802
rhand -9.11327 -48.8209
rfingers 7.12502
rthumb 16.8374 -78.1109
lclavicle -1.71949e-014 -2.66371e-014
lhumerus -28.1881 -10.8595 80.9905
lradius 20.4874
lwrist -7.83232
lhand -22.2263 -13.641
lfingers 7.12502
lthumb 4.19028 16.2975
rfemur -31.3703 9.44366 18.2494
rtibia 14.4439
rfoot -23.0524 -13.7973
rtoes -32.9752
lfemur -33.1346 -9.84839 -17.4942
ltibia 15.5417
lfoot -12.0523 3.41319
ltoes -41.4922
238
root 9.00822 16.2925 31.5776 -149.801 -4.01624 178.964
lowerback -24.2133 -1.94177 -4.17074
upperback -0.315766 -1.69078 -0.03444
thorax 13.389 -1.17109 1.73227
lowerneck -0.863787 -1.90467 -1.90635
upperneck -9.28204 -2.5839 6.54061
head -2.70924 -1.62702 2.52498
rclavicle -1.2424e-014 2.78299e-015
rhumerus -34.512 -18.4813 -74.2671
rradius 19.0868
rwrist 12.7842
rhand -8.80875 -48.051
rfingers 7.12502
rthumb 17.1305 -77.3158
lclavicle -1.2424e-014 2.78299e-015
lhumerus -28.8507 -11.1468 80.6881
lradius 20.5381
lwrist -7.72856
lhand -21.9166 -13.7787
lfingers 7.12502
lthumb 4.48932 16.1537
rfemur -31.8344 9.47261 18.1286
rtibia 14.6054
rfoot -23.2967 -13.7421
rtoes -33.1133
lfemur -33.6812 -9.80084 -17.4785
ltibia 15.87
lfoot -12.1675 3.36779
ltoes -40.677
